<svg id="Layer_5" enable-background="new 0 0 64 64" height="512" viewBox="0 0 64 64" width="512" xmlns="http://www.w3.org/2000/svg"><g><g><g><path d="m54 2h-50c-1.1 0-2 .9-2 2v10h54v-10c0-1.1-.9-2-2-2z" fill="#5cd6b3"/></g><g><path d="m56 48h-52c-1.105 0-2-.895-2-2v-32h54z" fill="#e6e9ed"/></g><g><path d="m28 30v14h-16v-12h10v-2z" fill="#4fc1e9"/></g><g><path d="m22 30v2h-10-6v-14h16z" fill="#ff826e"/></g><g><path d="m22 6h4v4h-4z" fill="#e6e9ed"/></g><g><path d="m14 6h4v4h-4z" fill="#e6e9ed"/></g><g><path d="m6 6h4v4h-4z" fill="#e6e9ed"/></g><g><path d="m60.89 16.21c.99.49 1.39 1.7.9 2.68-.34.69-1.03 1.11-1.79 1.11-.31 0-.62-.07-.89-.21l-13.11-7.79-13.11 7.79c-.27.14-.58.21-.89.21-.76 0-1.45-.42-1.79-1.11-.49-.98-.09-2.19.9-2.68l3.74-2.21 9.29-5.49c.56-.33 1.21-.51 1.86-.51s1.3.18 1.86.51l8.14 4.81z" fill="#fcd770"/></g><g><path d="m59.11 19.79-13.11-7.79-13.11 7.79c-.27.14-.58.21-.89.21v14h28v-14c-.31 0-.62-.07-.89-.21z" fill="#aab2bd"/></g><g><path d="m40 22h12v12h-12z" fill="#b27946"/></g><g><path d="m56 42c0-1.1.9-2 2-2 .55 0 1.05.22 1.41.59.37.36.59.86.59 1.41v11c0 1.3-.42 2.56-1.2 3.6l-1.8 2.4v3l-16-.04v-2.96l-2.37-4.78c-.42-.83-.63-1.74-.63-2.67v-3.55-.56c0-.97-.23-1.94-.66-2.81l-1.17-2.33c-.11-.22-.17-.47-.17-.72 0-.9.73-1.62 1.62-1.62h.09c3.48 0 6.29 2.81 6.29 6.28v-12.24-6c0-1.1.9-2 2-2 .55 0 1.05.22 1.41.59.37.36.59.86.59 1.41v6 6c0-1.1.9-2 2-2 .55 0 1.05.22 1.41.59.37.36.59.86.59 1.41 0-1.1.9-2 2-2 .55 0 1.05.22 1.41.59.37.36.59.86.59 1.41z" fill="#f0d0b4"/></g></g><g><path d="m61.403 15.35-4.403-2.602v-8.748c0-1.654-1.346-3-3-3h-50c-1.654 0-3 1.346-3 3v42c0 1.654 1.346 3 3 3h33v2.55c0 1.074.252 2.151.73 3.113l2.27 4.571v3.721l18 .047v-3.669l1.6-2.133c.903-1.204 1.4-2.695 1.4-4.2v-11c0-1.654-1.346-3-3-3-.352 0-.686.072-1 .184v-4.184h4v-14.177c.72-.253 1.328-.771 1.684-1.481.739-1.48.137-3.286-1.281-3.992zm-.455 2.334c.085.254.066.525-.053.763-.171.341-.514.553-.896.553-.154 0-.309-.037-.383-.071l-13.616-8.092-13.553 8.058c-.478.239-1.103.032-1.342-.447-.119-.238-.138-.509-.053-.763.084-.254.262-.459.562-.612l13.034-7.703c.818-.483 1.886-.483 2.704 0l13.095 7.736c.239.119.416.324.501.578zm-56.948-14.684h50c.551 0 1 .449 1 1v7.566l-6.63-3.918c-1.435-.848-3.305-.848-4.739 0l-9.054 5.352h-31.577v-9c0-.551.449-1 1-1zm-1 43v-31h28.193l-.535.316c-1.479.74-2.082 2.545-1.342 4.025.358.715.962 1.25 1.684 1.503v14.156h12v6.257c-1.341-1.411-3.244-2.299-5.381-2.299-1.443 0-2.618 1.174-2.619 2.618 0 .404.096.809.276 1.172l1.166 2.331c.299.598.476 1.255.532 1.922h-32.974c-.551-.001-1-.45-1-1.001zm48-13h-2v-5c0-1.654-1.346-3-3-3s-3 1.346-3 3v5h-2v-10h10zm7 8c.551 0 1 .449 1 1v11c0 1.075-.355 2.141-1 3l-2 2.667v2.331l-14-.038v-2.195l-2.479-4.992c-.341-.687-.521-1.455-.521-2.223v-4.108c0-1.126-.266-2.253-.769-3.259l-1.165-2.33c-.043-.085-.066-.182-.066-.277 0-.341.278-.618.714-.618 2.915 0 5.286 2.372 5.286 5.287v1.713 2h2v-2-1.713-18.245c0-.551.449-1 1-1s1 .449 1 1v12 4h2v-4c0-.551.449-1 1-1s1 .449 1 1v4h2v-4c0-.551.449-1 1-1s1 .449 1 1v2 2h2v-2c0-.551.449-1 1-1zm-3-3.816c-.314-.112-.648-.184-1-.184-.771 0-1.468.301-2 .78-.532-.48-1.229-.78-2-.78-.352 0-.686.072-1 .184v-2.184h6zm-2-4.184v-12h-14v12h-6v-12.192c.135-.048.27-.09.405-.159l12.595-7.486 12.658 7.521c.109.054.227.083.342.124v12.192z"/><path d="m11 5h-6v6h6zm-2 4h-2v-2h2z"/><path d="m19 5h-6v6h6zm-2 4h-2v-2h2z"/><path d="m27 5h-6v6h6zm-2 4h-2v-2h2z"/><path d="m23 17h-18v16h6v12h18v-16h-6zm-16 2h14v12h-14zm20 12v12h-14v-10h10v-2z"/><path d="m5 35h4v2h-4z"/><path d="m5 39h4v2h-4z"/><path d="m5 43h4v2h-4z"/></g></g></svg>