<svg id="Capa_1" enable-background="new 0 0 496.86 496.86" height="512" viewBox="0 0 496.86 496.86" width="512" xmlns="http://www.w3.org/2000/svg"><g><path d="m395.56 329.275-8.71-16.898 12.532-67.199 16.091-8.493c-6.404-86.532-78.635-154.749-166.803-154.749-92.38 0-167.269 74.889-167.269 167.269s74.889 167.269 167.269 167.269c63.372 0 118.51-35.245 146.89-87.199z" fill="#dff6fd"/><g><path d="m301.913 90.589c-16.83-5.645-34.872-8.693-53.613-8.652-92.598.201-168.496 77.677-166.872 170.261 1.596 90.999 75.862 164.276 167.242 164.276 8.622 0 17.117-.656 25.388-1.914-66.254-22.25-114.018-84.866-114.018-158.616 0-73.744 47.74-136.337 113.99-158.591 10.416-3.499 21.644 3.037 23.69 13.833 9.689 51.126 54.696 89.91 108.599 89.91.862 0 1.728-.004 2.585-.024-15.601-52.004-55.684-93.321-106.991-110.483z" fill="#c8effe"/><path d="m235.047 142.634c0 11.095 8.994 20.089 20.089 20.089h136.737c-9.154-15.125-20.636-28.683-33.95-40.177h-102.788c-11.094-.001-20.088 8.993-20.088 20.088z" fill="#ade194"/><path d="m322.656 162.723h69.216c-9.154-15.125-20.636-28.683-33.95-40.177h-57.415c4.535 14.974 12.165 28.618 22.149 40.177z" fill="#97da7b"/><path d="m357.515 156.946 76.54 8.748 31.866-17.119 9.889.02c13.135-15.713 21.05-35.956 21.05-58.04 0-50-40.54-90.54-90.54-90.54s-90.54 40.54-90.54 90.54c0 22.085 7.914 42.327 21.05 58.04z" fill="#5f99d7"/><g><path d="m475.81 148.575v.02c-16.61 19.87-41.57 32.5-69.49 32.5s-52.88-12.63-69.49-32.5v-.02c.09-19.48 8.21-37.05 21.2-49.61l23.7-17.03h52.83l20.05 17.03c12.99 12.56 21.11 30.13 21.2 49.61z" fill="#f37c7c"/></g><path d="m454.61 98.965-20.05-17.03h-24.885l-17.803 19.244v-19.244h-10.142l-23.7 17.03c-12.99 12.56-21.11 30.13-21.2 49.61v.02c7.299 8.731 16.211 16.063 26.277 21.541.121-7.369 1.391-14.456 3.637-21.093 3.327-9.831 13.635-15.306 23.788-13.151 5.094 1.082 10.375 1.652 15.788 1.652 23.208 0 44.014-10.434 58.013-26.842-2.814-4.258-6.067-8.202-9.723-11.737z" fill="#ee6161"/><path d="m21.05 148.595 13.382 2.492 45.405 17.44 55.327-8.119 16.642-13.23 8.233 1.407v-.01c13.14-15.71 21.04-35.94 21.04-58.02 0-50-40.53-90.54-90.54-90.54-50 0-90.54 40.54-90.54 90.54.001 22.09 7.901 42.33 21.051 58.04z" fill="#5f99d7"/><g><path d="m160.04 148.575v.01c-16.6 19.87-41.57 32.51-69.5 32.51-27.92 0-52.88-12.63-69.49-32.5v-.02c.09-19.48 8.21-37.05 21.21-49.61l27.02-17.03h49.08l20.47 17.03c12.99 12.56 21.11 30.13 21.21 49.61z" fill="#fee97d"/></g><path d="m138.83 98.965-20.47-17.03h-13.63l-40.907 31.376v-27.937l-21.563 13.591c-13 12.56-21.12 30.13-21.21 49.61v.02c8.391 10.037 18.92 18.231 30.877 23.878.088-10.425 2.473-20.303 6.677-29.145 2.79-5.868 9.326-8.933 15.673-7.541 5.242 1.15 10.684 1.758 16.267 1.758 23.207 0 44.012-10.433 58.012-26.84-2.816-4.26-6.07-8.205-9.726-11.74z" fill="#fee45a"/><path d="m90.543.018c-33.835 0-61.264 27.429-61.264 61.264 0 7.749 1.453 15.154 4.078 21.978l8.559-4.375 39.486 37.07 20.204 4.608 7.328-.83c24.849-7.811 42.873-31.024 42.873-58.451 0-33.836-27.429-61.264-61.264-61.264z" fill="#ffe5c2"/><path d="m66.061 61.281c0-27.427 18.04-50.64 42.889-58.45-5.806-1.825-11.998-2.813-18.407-2.813-33.835 0-61.264 27.429-61.264 61.264s27.429 61.264 61.264 61.264c6.408 0 12.585-.988 18.391-2.813-24.848-7.811-42.873-31.025-42.873-58.452z" fill="#fed2a4"/><g id="XMLID_286_"><g><path d="m160.04 464.335c-16.61 19.87-41.58 32.51-69.5 32.51-27.91 0-52.88-12.63-69.49-32.5-13.14-15.71-21.05-35.95-21.05-58.04 0-50 40.54-90.54 90.54-90.54 50.01 0 90.54 40.54 90.54 90.54 0 22.08-7.9 42.31-21.04 58.02" fill="#5f99d7"/></g></g><g><path d="m160.04 464.325v.01c-16.61 19.87-41.58 32.51-69.5 32.51-27.91 0-52.88-12.63-69.49-32.5v-.02c.09-19.48 8.21-37.05 21.21-49.61l20.29-19.29h56.26l20.02 19.29c12.99 12.56 21.11 30.13 21.21 49.61z" fill="#dff6fd"/></g><path d="m138.83 414.715-20.02-19.29h-52.532l-12.246 18.331v-10.232l-11.772 11.191c-13 12.56-21.12 30.13-21.21 49.61v.02c7.298 8.73 16.211 16.062 26.277 21.539.143-8.703 1.889-17.013 4.953-24.652 3.203-7.985 11.938-12.107 20.299-10.076 5.761 1.399 11.777 2.141 17.964 2.141 23.208 0 44.013-10.433 58.012-26.841-2.814-4.261-6.068-8.205-9.725-11.741z" fill="#c8effe"/><path d="m406.32.018c-33.835 0-61.264 27.429-61.264 61.264 0 8.361 1.68 16.328 4.713 23.59l5.737-3.792 43.109 34.512 23.827 3.93 5.415-.88c23.208-8.718 39.727-31.106 39.727-57.36 0-33.836-27.429-61.264-61.264-61.264z" fill="#ffe5c2"/><path d="m382.143 59.374c0-26.254 16.564-48.64 39.771-57.358-4.966-1.299-10.221-1.998-15.594-1.998-33.835 0-61.264 27.429-61.264 61.264s27.429 61.264 61.264 61.264c7.581 0 14.836-1.386 21.537-3.904-26.304-6.883-45.714-30.806-45.714-59.268z" fill="#fed2a4"/><path d="m90.543 315.769c-33.835 0-61.264 27.429-61.264 61.264 0 9.39 2.119 18.283 5.895 26.236l3.44-7.205 16.82 22.974 49.366 16 7.28-.645c23.207-8.718 39.726-31.106 39.726-57.36.001-33.835-27.428-61.264-61.263-61.264z" fill="#ffe5c2"/><path d="m66.366 375.125c0-26.254 16.539-48.642 39.747-57.361-4.966-1.299-10.196-1.996-15.57-1.996-33.835 0-61.264 27.429-61.264 61.264s27.429 61.264 61.264 61.264c7.581 0 14.836-1.386 21.537-3.904-26.304-6.882-45.714-30.805-45.714-59.267z" fill="#fed2a4"/><g fill="#ade194"><path d="m415.473 236.685h-111.269c-8.239 0-14.918 6.679-14.918 14.918s6.679 14.918 14.918 14.918h33.961c8.224 0 14.891 6.667 14.891 14.891s-6.667 14.891-14.891 14.891h-10.588c-9.105 0-16.486 7.381-16.486 16.486 0 9.105 7.381 16.486 16.486 16.486h67.983c12.991-23.781 20.378-51.062 20.378-80.07.001-4.212-.159-8.386-.465-12.52z"/><path d="m180.887 180.532h-12.131-72.65c-5.227 11.595-9.162 23.897-11.642 36.717h96.424c10.139 0 18.359-8.219 18.359-18.359-.001-10.138-8.221-18.358-18.36-18.358z"/><path d="m210.348 291.578h-46.943c-8.927 0-16.164-7.237-16.164-16.164 0-8.927 7.237-16.164 16.164-16.164h46.943c8.927 0 16.164 7.237 16.164 16.164 0 8.928-7.237 16.164-16.164 16.164z"/></g></g><path d="m258.518 377.305h-46.943c-8.927 0-16.164-7.237-16.164-16.164 0-8.927 7.237-16.164 16.164-16.164h46.943c8.927 0 16.164 7.237 16.164 16.164 0 8.927-7.237 16.164-16.164 16.164z" fill="#ade194"/><path d="m177.972 180.532h-9.216-72.65c-5.227 11.595-9.162 23.897-11.642 36.717h80.081c3.05-12.879 7.59-25.181 13.427-36.717z" fill="#97da7b"/></g></svg>